<svg xmlns="http://www.w3.org/2000/svg" id="Capa_1" data-name="Capa 1" viewBox="0 0 1188.85 534.87" xmlns:bx="https://boxy-svg.com">
  <defs>
    <style>
      .cls-1 {
        font-family: Inter-Bold, Inter;
        font-size: 68.08px;
        font-variation-settings: 'wght' 700, 'slnt' 0;
      }

      .cls-1, .cls-2 {
        font-weight: 700;
      }

      .cls-3 {
        fill: #fff;
      }

      .cls-2 {
        font-family: Asap-Bold, Asap;
        font-size: 214.67px;
      }

      .cls-4 {
        letter-spacing: -.13em;
      }
    </style>
    <style bx:fonts="Asap">@import url(https://fonts.googleapis.com/css2?family=Asap%3Aital%2Cwght%400%2C100..900%3B1%2C100..900&amp;display=swap);</style>
  </defs>
  <path fill="currentColor" d="M 21.896 0 Q 13.954 0 13.954 -8.587 L 13.954 -141.682 Q 13.954 -150.269 21.896 -150.269 L 65.045 -150.269 Q 83.292 -150.269 94.347 -145.439 Q 105.403 -140.609 110.555 -132.129 Q 115.707 -123.65 115.707 -112.272 Q 115.707 -104.759 112.594 -98.212 Q 109.482 -91.664 104.222 -86.834 Q 98.963 -82.004 92.523 -79.643 L 92.523 -78.784 Q 101.11 -77.067 107.657 -71.807 Q 114.204 -66.548 117.961 -59.249 Q 121.718 -51.95 121.718 -43.578 Q 121.718 -29.839 115.814 -20.072 Q 109.911 -10.304 98.104 -5.152 Q 86.297 0 68.05 0 Z M 47.227 -28.122 L 69.124 -28.122 Q 77.925 -28.122 82.863 -32.63 Q 87.8 -37.138 87.8 -45.51 Q 87.8 -53.882 82.111 -58.068 Q 76.423 -62.254 65.689 -62.254 L 47.227 -62.254 Z M 47.227 -90.161 L 62.898 -90.161 Q 72.129 -90.161 76.959 -94.884 Q 81.789 -99.607 81.789 -106.262 Q 81.789 -114.204 77.281 -118.176 Q 72.773 -122.147 63.328 -122.147 L 47.227 -122.147 Z M 152.835 0.429 Q 145.966 0.429 142.853 -1.395 Q 139.741 -3.22 139.741 -6.655 L 139.741 -105.618 Q 139.741 -109.052 142.853 -110.877 Q 145.966 -112.702 152.835 -112.702 L 158.846 -112.702 Q 165.716 -112.702 168.828 -110.877 Q 171.941 -109.052 171.941 -105.618 L 171.941 -6.655 Q 171.941 -3.22 168.828 -1.395 Q 165.716 0.429 158.846 0.429 Z M 155.841 -123.221 Q 147.469 -123.221 143.712 -124.938 Q 139.955 -126.655 139.955 -130.09 L 139.955 -146.834 Q 139.955 -150.269 143.712 -151.986 Q 147.469 -153.704 155.841 -153.704 Q 164.213 -153.704 167.97 -151.986 Q 171.726 -150.269 171.726 -146.834 L 171.726 -130.09 Q 171.726 -126.655 167.97 -124.938 Q 164.213 -123.221 155.841 -123.221 Z M 256.298 1.717 Q 246.424 1.717 238.481 -2.898 Q 230.538 -7.513 226.674 -14.383 Q 226.245 -12.236 225.493 -9.875 Q 224.742 -7.513 223.669 -5.152 Q 222.166 -1.717 219.59 -0.644 Q 217.014 0.429 212.076 0.429 L 209.5 0.429 Q 202.846 0.429 199.733 -1.288 Q 196.62 -3.005 196.62 -6.44 L 196.62 -154.777 Q 196.62 -158.212 199.733 -160.036 Q 202.846 -161.861 209.715 -161.861 L 215.726 -161.861 Q 222.595 -161.861 225.708 -160.036 Q 228.821 -158.212 228.821 -154.777 L 228.821 -107.335 Q 231.182 -109.052 234.509 -110.555 Q 237.837 -112.058 242.023 -113.024 Q 246.209 -113.99 251.146 -113.99 Q 273.472 -113.99 285.386 -98.212 Q 297.3 -82.433 297.3 -56.244 Q 297.3 -37.567 291.934 -24.58 Q 286.567 -11.592 277.336 -4.937 Q 268.105 1.717 256.298 1.717 Z M 247.497 -23.399 Q 256.298 -23.399 260.484 -31.771 Q 264.671 -40.143 264.671 -56.244 Q 264.671 -72.344 259.733 -80.609 Q 254.796 -88.873 244.277 -88.873 Q 239.125 -88.873 235.368 -87.585 Q 231.611 -86.297 228.821 -84.795 L 228.821 -36.923 Q 232.041 -31.556 236.549 -27.478 Q 241.057 -23.399 247.497 -23.399 Z M 331.868 0.429 Q 324.999 0.429 321.886 -1.395 Q 318.773 -3.22 318.773 -6.655 L 318.773 -105.618 Q 318.773 -109.052 321.886 -110.877 Q 324.999 -112.702 331.868 -112.702 L 337.879 -112.702 Q 344.749 -112.702 347.861 -110.877 Q 350.974 -109.052 350.974 -105.618 L 350.974 -6.655 Q 350.974 -3.22 347.861 -1.395 Q 344.749 0.429 337.879 0.429 Z M 334.874 -123.221 Q 326.502 -123.221 322.745 -124.938 Q 318.988 -126.655 318.988 -130.09 L 318.988 -146.834 Q 318.988 -150.269 322.745 -151.986 Q 326.502 -153.704 334.874 -153.704 Q 343.246 -153.704 347.003 -151.986 Q 350.759 -150.269 350.759 -146.834 L 350.759 -130.09 Q 350.759 -126.655 347.003 -124.938 Q 343.246 -123.221 334.874 -123.221 Z" transform="matrix(1, 0, 0, 1, 575.379997, 331.010005)" style="text-wrap-mode: nowrap;"></path>
  <path fill="currentColor" d="M 372.011 -122.791 Q 366.645 -122.791 364.927 -123.65 Q 363.21 -124.509 363.21 -126.011 Q 363.21 -127.085 363.961 -128.373 Q 364.713 -129.661 366.001 -132.022 L 374.588 -147.478 Q 376.09 -150.054 377.7 -151.557 Q 379.31 -153.06 382.745 -153.596 Q 386.18 -154.133 392.834 -154.133 Q 399.06 -154.133 401.636 -153.382 Q 404.212 -152.63 404.212 -150.484 Q 404.212 -148.766 403.031 -146.834 Q 401.851 -144.902 400.133 -142.756 L 387.897 -129.231 Q 385.536 -126.655 383.389 -125.26 Q 381.242 -123.865 378.666 -123.328 Q 376.09 -122.791 372.011 -122.791 Z M 417.938 1.717 Q 411.928 1.717 405.702 0.751 Q 399.477 -0.215 394.11 -2.147 Q 388.743 -4.079 385.523 -6.762 Q 382.303 -9.445 382.303 -12.88 Q 382.303 -15.671 384.235 -19.535 Q 386.167 -23.399 388.85 -26.404 Q 391.534 -29.41 393.681 -29.41 Q 395.398 -29.41 398.296 -27.907 Q 401.194 -26.404 405.487 -24.902 Q 409.781 -23.399 415.362 -23.399 Q 421.802 -23.399 425.13 -25.76 Q 428.457 -28.122 428.457 -32.415 Q 428.457 -35.635 426.203 -37.782 Q 423.949 -39.929 420.085 -41.753 Q 416.221 -43.578 411.069 -45.725 Q 407.205 -47.442 402.589 -49.803 Q 397.974 -52.165 394.003 -55.814 Q 390.031 -59.464 387.455 -65.045 Q 384.879 -70.626 384.879 -78.784 Q 384.879 -89.947 389.709 -97.782 Q 394.539 -105.618 403.341 -109.804 Q 412.142 -113.99 423.949 -113.99 Q 428.672 -113.99 434.146 -113.346 Q 439.62 -112.702 444.665 -111.199 Q 449.709 -109.696 452.929 -107.335 Q 456.15 -104.974 456.15 -101.539 Q 456.15 -99.178 454.647 -95.099 Q 453.144 -91.02 451.105 -87.8 Q 449.065 -84.58 446.919 -84.58 Q 445.201 -84.58 440.479 -86.834 Q 435.756 -89.088 427.813 -89.088 Q 422.446 -89.088 419.441 -87.263 Q 416.436 -85.439 416.436 -81.145 Q 416.436 -77.711 418.69 -75.457 Q 420.944 -73.202 425.022 -71.485 Q 429.101 -69.768 434.253 -67.836 Q 438.117 -66.333 442.625 -64.079 Q 447.133 -61.825 451.105 -58.176 Q 455.076 -54.526 457.545 -48.837 Q 460.014 -43.149 460.014 -34.991 Q 460.014 -24.043 455.076 -15.778 Q 450.139 -7.513 440.801 -2.898 Q 431.462 1.717 417.938 1.717 Z" transform="matrix(1, 0, 0, 1, 575.379997, 331.010005)" style="text-wrap-mode: nowrap;"></path>
  <path fill="currentColor" d="M 19.199 0.136 Q 17.497 0.136 16.543 -0.238 Q 15.59 -0.613 15.318 -1.43 L 0.34 -45.069 Q 0.272 -45.409 0.204 -45.716 Q 0.136 -46.022 0.136 -46.294 Q 0.136 -47.043 0.953 -47.418 Q 1.77 -47.792 3.54 -47.792 L 6.74 -47.792 Q 8.238 -47.792 9.259 -47.486 Q 10.28 -47.179 10.552 -46.362 L 20.969 -10.484 L 21.241 -10.484 L 31.657 -46.362 Q 31.93 -47.111 32.746 -47.452 Q 33.563 -47.792 34.789 -47.792 L 37.716 -47.792 Q 39.895 -47.792 40.882 -47.418 Q 41.869 -47.043 41.869 -46.294 Q 41.869 -46.022 41.801 -45.716 Q 41.733 -45.409 41.597 -45.069 L 26.619 -1.43 Q 26.347 -0.613 25.394 -0.238 Q 24.441 0.136 22.739 0.136 Z M 59.892 0.545 Q 50.634 0.545 46.379 -4.391 Q 42.124 -9.327 42.124 -17.565 Q 42.124 -24.305 44.234 -28.389 Q 46.344 -32.474 50.089 -34.312 Q 53.833 -36.15 58.667 -36.15 Q 64.045 -36.15 67.245 -33.734 Q 70.445 -31.317 71.909 -27.402 Q 73.372 -23.488 73.372 -18.926 Q 73.372 -18.041 72.725 -17.02 Q 72.079 -15.999 71.194 -15.284 Q 70.309 -14.569 69.56 -14.569 L 52.472 -14.569 Q 52.608 -10.484 54.82 -8.953 Q 57.033 -7.421 60.369 -7.421 Q 62.684 -7.421 64.488 -8.067 Q 66.292 -8.714 67.551 -9.327 Q 68.811 -9.94 69.492 -9.94 Q 70.172 -9.94 70.853 -8.918 Q 71.534 -7.897 72.011 -6.638 Q 72.487 -5.378 72.487 -4.698 Q 72.487 -3.676 71.16 -2.723 Q 69.832 -1.77 67.79 -1.021 Q 65.747 -0.272 63.637 0.136 Q 61.526 0.545 59.892 0.545 Z M 52.336 -21.309 L 63.773 -21.309 Q 63.773 -24.713 62.411 -26.449 Q 61.05 -28.185 58.258 -28.185 Q 57.033 -28.185 55.671 -27.709 Q 54.31 -27.232 53.357 -25.768 Q 52.404 -24.305 52.336 -21.309 Z M 84.062 0.136 Q 81.883 0.136 80.896 -0.443 Q 79.909 -1.021 79.909 -2.11 L 79.909 -23.76 Q 79.909 -26.755 79.739 -28.56 Q 79.568 -30.364 79.398 -31.385 Q 79.228 -32.406 79.228 -33.155 Q 79.228 -33.904 80.215 -34.38 Q 81.202 -34.857 82.598 -35.095 Q 83.994 -35.334 85.253 -35.436 Q 86.513 -35.538 87.057 -35.538 Q 87.874 -35.538 88.283 -35.163 Q 88.691 -34.789 88.997 -33.836 Q 89.304 -32.883 89.644 -30.976 Q 90.665 -32.27 92.197 -33.461 Q 93.729 -34.653 95.669 -35.402 Q 97.61 -36.15 99.788 -36.15 Q 103.26 -36.15 105.541 -34.959 Q 107.822 -33.768 108.911 -31.351 Q 110 -28.934 110 -25.122 L 110 -2.11 Q 110 -1.021 109.013 -0.443 Q 108.026 0.136 105.847 0.136 L 103.941 0.136 Q 101.762 0.136 100.775 -0.443 Q 99.788 -1.021 99.788 -2.11 L 99.788 -23.624 Q 99.788 -25.598 98.903 -26.721 Q 98.018 -27.845 95.84 -27.845 Q 94.75 -27.845 93.627 -27.334 Q 92.504 -26.824 91.585 -25.938 Q 90.665 -25.053 90.121 -23.896 L 90.121 -2.11 Q 90.121 -1.021 89.134 -0.443 Q 88.146 0.136 85.968 0.136 Z M 129.13 0.545 Q 125.862 0.545 123.649 -0.613 Q 121.437 -1.77 120.347 -4.051 Q 119.258 -6.331 119.258 -9.667 L 119.258 -27.64 L 117.08 -27.64 Q 115.037 -27.64 115.037 -31.044 L 115.037 -32.202 Q 115.037 -35.606 117.08 -35.606 L 119.258 -35.606 L 120.347 -42.073 Q 120.552 -43.163 121.403 -43.707 Q 122.254 -44.252 123.82 -44.252 L 126.066 -44.252 Q 127.836 -44.252 128.653 -43.707 Q 129.47 -43.163 129.47 -42.073 L 129.47 -35.606 L 133.623 -35.606 Q 135.665 -35.606 135.665 -32.202 L 135.665 -31.044 Q 135.665 -27.64 133.623 -27.64 L 129.47 -27.64 L 129.47 -10.348 Q 129.47 -8.85 129.981 -8.204 Q 130.491 -7.557 131.785 -7.557 Q 132.942 -7.557 133.589 -7.863 Q 134.236 -8.17 134.712 -8.17 Q 135.121 -8.17 135.461 -7.489 Q 135.802 -6.808 136.04 -5.821 Q 136.278 -4.834 136.414 -3.915 Q 136.551 -2.996 136.551 -2.519 Q 136.551 -1.702 135.393 -0.987 Q 134.236 -0.272 132.534 0.136 Q 130.832 0.545 129.13 0.545 Z M 150.101 0.545 Q 144.587 0.545 142.306 -2.349 Q 140.025 -5.242 140.025 -9.395 Q 140.025 -11.506 140.672 -13.718 Q 141.319 -15.931 143.293 -17.837 Q 145.268 -19.743 149.182 -20.901 Q 153.097 -22.058 159.564 -22.058 L 159.564 -24.1 Q 159.564 -25.53 159.02 -26.415 Q 158.475 -27.3 157.318 -27.743 Q 156.16 -28.185 154.254 -28.185 Q 151.803 -28.185 149.863 -27.675 Q 147.923 -27.164 146.595 -26.619 Q 145.268 -26.075 144.587 -26.075 Q 144.11 -26.075 143.634 -26.721 Q 143.157 -27.368 142.783 -28.287 Q 142.408 -29.206 142.204 -30.091 Q 142 -30.976 142 -31.453 Q 142 -32.406 143.157 -33.223 Q 144.314 -34.04 146.221 -34.721 Q 148.127 -35.402 150.442 -35.776 Q 152.756 -36.15 155.003 -36.15 Q 159.02 -36.15 161.811 -35.299 Q 164.602 -34.448 166.338 -32.917 Q 168.074 -31.385 168.857 -29.308 Q 169.64 -27.232 169.64 -24.781 L 169.64 -11.982 Q 169.64 -8.442 169.844 -6.57 Q 170.049 -4.698 170.253 -3.778 Q 170.457 -2.859 170.457 -2.11 Q 170.457 -1.498 169.538 -1.089 Q 168.619 -0.681 167.291 -0.408 Q 165.964 -0.136 164.704 -0.034 Q 163.445 0.068 162.832 0.068 Q 161.743 0.068 161.232 -0.715 Q 160.722 -1.498 160.518 -2.621 Q 160.313 -3.744 160.109 -4.629 Q 159.905 -4.221 158.713 -2.961 Q 157.522 -1.702 155.377 -0.579 Q 153.233 0.545 150.101 0.545 Z M 153.437 -7.421 Q 154.731 -7.421 155.922 -7.965 Q 157.114 -8.51 158.067 -9.497 Q 159.02 -10.484 159.564 -11.71 L 159.564 -15.454 Q 157.114 -15.454 155.343 -15.114 Q 153.573 -14.773 152.382 -14.161 Q 151.191 -13.548 150.612 -12.595 Q 150.033 -11.642 150.033 -10.416 Q 150.033 -9.123 150.884 -8.272 Q 151.735 -7.421 153.437 -7.421 Z M 187.466 0.545 Q 185.56 0.545 183.585 0.238 Q 181.611 -0.068 179.909 -0.681 Q 178.207 -1.294 177.186 -2.145 Q 176.165 -2.996 176.165 -4.085 Q 176.165 -4.97 176.777 -6.195 Q 177.39 -7.421 178.241 -8.374 Q 179.092 -9.327 179.773 -9.327 Q 180.318 -9.327 181.237 -8.85 Q 182.156 -8.374 183.517 -7.897 Q 184.879 -7.421 186.649 -7.421 Q 188.691 -7.421 189.747 -8.17 Q 190.802 -8.918 190.802 -10.28 Q 190.802 -11.301 190.087 -11.982 Q 189.372 -12.663 188.147 -13.242 Q 186.921 -13.82 185.287 -14.501 Q 184.062 -15.046 182.598 -15.795 Q 181.135 -16.543 179.875 -17.701 Q 178.616 -18.858 177.799 -20.628 Q 176.982 -22.398 176.982 -24.985 Q 176.982 -28.526 178.513 -31.01 Q 180.045 -33.495 182.837 -34.823 Q 185.628 -36.15 189.372 -36.15 Q 190.87 -36.15 192.606 -35.946 Q 194.342 -35.742 195.942 -35.265 Q 197.542 -34.789 198.563 -34.04 Q 199.584 -33.291 199.584 -32.202 Q 199.584 -31.453 199.108 -30.159 Q 198.631 -28.866 197.984 -27.845 Q 197.338 -26.824 196.657 -26.824 Q 196.112 -26.824 194.614 -27.538 Q 193.117 -28.253 190.598 -28.253 Q 188.896 -28.253 187.943 -27.675 Q 186.989 -27.096 186.989 -25.734 Q 186.989 -24.645 187.704 -23.93 Q 188.419 -23.215 189.713 -22.671 Q 191.006 -22.126 192.64 -21.513 Q 193.866 -21.037 195.295 -20.322 Q 196.725 -19.607 197.984 -18.45 Q 199.244 -17.292 200.027 -15.488 Q 200.81 -13.684 200.81 -11.097 Q 200.81 -7.625 199.244 -5.004 Q 197.678 -2.383 194.717 -0.919 Q 191.755 0.545 187.466 0.545 Z M 243.627 0.545 Q 233.144 0.545 227.459 -5.753 Q 221.774 -12.05 221.774 -23.794 Q 221.774 -35.606 227.459 -41.903 Q 233.144 -48.201 243.627 -48.201 Q 254.18 -48.201 259.797 -41.903 Q 265.414 -35.606 265.414 -23.794 Q 265.414 -12.05 259.797 -5.753 Q 254.18 0.545 243.627 0.545 Z M 243.628 -8.374 Q 249.074 -8.374 251.866 -12.288 Q 254.657 -16.203 254.657 -23.859 Q 254.657 -31.515 251.866 -35.399 Q 249.074 -39.282 243.628 -39.282 Q 238.182 -39.282 235.356 -35.399 Q 232.531 -31.515 232.531 -23.859 Q 232.531 -16.203 235.369 -12.288 Q 238.207 -8.374 243.628 -8.374 Z M 276.573 0.136 Q 274.395 0.136 273.408 -0.443 Q 272.42 -1.021 272.42 -2.11 L 272.42 -23.76 Q 272.42 -26.755 272.25 -28.56 Q 272.08 -30.364 271.91 -31.385 Q 271.74 -32.406 271.74 -33.155 Q 271.74 -33.904 272.727 -34.38 Q 273.714 -34.857 275.11 -35.095 Q 276.505 -35.334 277.765 -35.436 Q 279.024 -35.538 279.569 -35.538 Q 280.386 -35.538 280.794 -35.163 Q 281.203 -34.789 281.509 -33.836 Q 281.815 -32.883 282.156 -30.976 Q 283.177 -32.27 284.709 -33.461 Q 286.241 -34.653 288.181 -35.402 Q 290.121 -36.15 292.3 -36.15 Q 295.772 -36.15 298.053 -34.959 Q 300.333 -33.768 301.423 -31.351 Q 302.512 -28.934 302.512 -25.122 L 302.512 -2.11 Q 302.512 -1.021 301.525 -0.443 Q 300.537 0.136 298.359 0.136 L 296.453 0.136 Q 294.274 0.136 293.287 -0.443 Q 292.3 -1.021 292.3 -2.11 L 292.3 -23.624 Q 292.3 -25.598 291.415 -26.721 Q 290.53 -27.845 288.351 -27.845 Q 287.262 -27.845 286.139 -27.334 Q 285.015 -26.824 284.096 -25.938 Q 283.177 -25.053 282.632 -23.896 L 282.632 -2.11 Q 282.632 -1.021 281.645 -0.443 Q 280.658 0.136 278.48 0.136 Z M 320.552 0.545 Q 317.284 0.545 315.072 -0.613 Q 312.859 -1.77 311.77 -4.051 Q 310.681 -6.331 310.681 -9.667 L 310.681 -49.086 Q 310.681 -50.175 311.668 -50.754 Q 312.655 -51.332 314.833 -51.332 L 316.74 -51.332 Q 318.918 -51.332 319.905 -50.754 Q 320.893 -50.175 320.893 -49.086 L 320.893 -10.348 Q 320.893 -8.85 321.403 -8.204 Q 321.914 -7.557 323.207 -7.557 Q 324.365 -7.557 325.011 -7.863 Q 325.658 -8.17 326.135 -8.17 Q 326.543 -8.17 326.884 -7.489 Q 327.224 -6.808 327.462 -5.821 Q 327.701 -4.834 327.837 -3.915 Q 327.973 -2.996 327.973 -2.519 Q 327.973 -1.702 326.816 -0.987 Q 325.658 -0.272 323.956 0.136 Q 322.254 0.545 320.552 0.545 Z M 334.711 0.136 Q 332.533 0.136 331.545 -0.443 Q 330.558 -1.021 330.558 -2.11 L 330.558 -33.495 Q 330.558 -34.585 331.545 -35.163 Q 332.533 -35.742 334.711 -35.742 L 336.617 -35.742 Q 338.796 -35.742 339.783 -35.163 Q 340.77 -34.585 340.77 -33.495 L 340.77 -2.11 Q 340.77 -1.021 339.783 -0.443 Q 338.796 0.136 336.617 0.136 Z M 335.664 -39.078 Q 333.009 -39.078 331.818 -39.623 Q 330.626 -40.167 330.626 -41.256 L 330.626 -46.567 Q 330.626 -47.656 331.818 -48.201 Q 333.009 -48.745 335.664 -48.745 Q 338.319 -48.745 339.511 -48.201 Q 340.702 -47.656 340.702 -46.567 L 340.702 -41.256 Q 340.702 -40.167 339.511 -39.623 Q 338.319 -39.078 335.664 -39.078 Z M 352.758 0.136 Q 350.579 0.136 349.592 -0.443 Q 348.605 -1.021 348.605 -2.11 L 348.605 -23.76 Q 348.605 -26.755 348.434 -28.56 Q 348.264 -30.364 348.094 -31.385 Q 347.924 -32.406 347.924 -33.155 Q 347.924 -33.904 348.911 -34.38 Q 349.898 -34.857 351.294 -35.095 Q 352.689 -35.334 353.949 -35.436 Q 355.208 -35.538 355.753 -35.538 Q 356.57 -35.538 356.978 -35.163 Q 357.387 -34.789 357.693 -33.836 Q 358 -32.883 358.34 -30.976 Q 359.361 -32.27 360.893 -33.461 Q 362.425 -34.653 364.365 -35.402 Q 366.305 -36.15 368.484 -36.15 Q 371.956 -36.15 374.237 -34.959 Q 376.517 -33.768 377.607 -31.351 Q 378.696 -28.934 378.696 -25.122 L 378.696 -2.11 Q 378.696 -1.021 377.709 -0.443 Q 376.722 0.136 374.543 0.136 L 372.637 0.136 Q 370.458 0.136 369.471 -0.443 Q 368.484 -1.021 368.484 -2.11 L 368.484 -23.624 Q 368.484 -25.598 367.599 -26.721 Q 366.714 -27.845 364.535 -27.845 Q 363.446 -27.845 362.323 -27.334 Q 361.199 -26.824 360.28 -25.938 Q 359.361 -25.053 358.817 -23.896 L 358.817 -2.11 Q 358.817 -1.021 357.829 -0.443 Q 356.842 0.136 354.664 0.136 Z M 403.187 0.545 Q 393.928 0.545 389.673 -4.391 Q 385.418 -9.327 385.418 -17.565 Q 385.418 -24.305 387.528 -28.389 Q 389.639 -32.474 393.383 -34.312 Q 397.128 -36.15 401.961 -36.15 Q 407.34 -36.15 410.539 -33.734 Q 413.739 -31.317 415.203 -27.402 Q 416.667 -23.488 416.667 -18.926 Q 416.667 -18.041 416.02 -17.02 Q 415.373 -15.999 414.488 -15.284 Q 413.603 -14.569 412.854 -14.569 L 395.766 -14.569 Q 395.902 -10.484 398.115 -8.953 Q 400.327 -7.421 403.663 -7.421 Q 405.978 -7.421 407.782 -8.067 Q 409.586 -8.714 410.846 -9.327 Q 412.105 -9.94 412.786 -9.94 Q 413.467 -9.94 414.148 -8.918 Q 414.828 -7.897 415.305 -6.638 Q 415.782 -5.378 415.782 -4.698 Q 415.782 -3.676 414.454 -2.723 Q 413.126 -1.77 411.084 -1.021 Q 409.042 -0.272 406.931 0.136 Q 404.821 0.545 403.187 0.545 Z M 395.63 -21.309 L 407.067 -21.309 Q 407.067 -24.713 405.706 -26.449 Q 404.344 -28.185 401.553 -28.185 Q 400.327 -28.185 398.966 -27.709 Q 397.604 -27.232 396.651 -25.768 Q 395.698 -24.305 395.63 -21.309 Z" transform="matrix(1, 0, 0, 1, 593.729972, 403.230005)" style="text-wrap-mode: nowrap;"></path>
  <path fill="currentColor" class="cls-3" d="M475.4,140.45c.4-1.51-.39-1.65-.98-2.5-10.32-14.82-37.93-34.3-53.99-43.01-60.8-32.94-136.55-32.74-197.04,1-4.81,2.68-19.28,11.12-22.5,14.5-1.97,2.07-2.28,2.54-.25,4.34,2.88,2.56,8.18,4.67,11.28,7.37,11.87-7.12,23.38-14.99,36.13-20.54,39.93-17.35,89.07-19.6,130.58-6.86,30.55,9.38,57.66,27.66,80.5,49.57l16.28-3.86Z"></path>
  <path fill="currentColor" class="cls-3" d="M504.35,181.48l-14.71,6.44c6.39,16.5,14.34,35.22,15.75,53.05,4.75,59.85-9.89,112.51-52.97,155-53.25,52.51-130.7,66.74-199.69,37.66-6.41-2.7-12.27-6.78-18.85-9.15l-10.34,10.67c-.28,1.78,2.84,3.64,4.17,4.51,49.84,32.61,126.55,31.03,179.37,6.98,100.21-45.63,143.73-164.9,97.27-265.16Z"></path>
  <path fill="currentColor" class="cls-3" d="M146.41,363.46c4.6-1.32,10.16-8.73,10.04-13.46s-8.32-21.38-10.32-27.77c-5.43-17.4-7.89-35.01-8.77-53.23-.32-6.48,1.11-16.28.05-22.05-.52-2.81-13.03-8.33-14-7.5-5.02,43.3,2.43,85.66,23.01,124Z"></path>
  <path fill="currentColor" d="M308.41,227.46c1.23.93,4.18-2.61,4.96-3.52,27.47-31.95,27.31-82.2,81.83-88.16,30.1-3.29,46.62,19.67,77.68,17.67,40.02-2.59,72.63-13.56,114.76-6.74,1.2.19,6.55,1.4,6.8,2.36l-.16,3.28c-12.89,1.95-26.25,1.54-39.26,3.23-53.93,7.01-107.42,29.94-120.95,87.05-9.7,40.94-12.86,72.44-47.21,101.79-39.34,33.61-90.04,35.12-138.81,25.96-12.64,30.07-33.87,73.59-72.16,73.16-3.48-.04-8.78-2.29-11.79-1.88-3.49.47-10.89,5.44-16.66,6.35-13.72,2.16-16.64-.08-16.04-14.04,1.83-42.15,48.18-98.43,79.51-124.49,9.22-7.67,19.83-13.87,28.48-22.01-29.92,1.19-57.2-7.58-77.03-30.48-3.93-4.54-9.84-15.97-13.47-18.53-5.45-3.84-18.32-7.43-25.52-11.48-17.02-9.55-35.47-26.82-45.15-43.85-2.82-4.95-11.21-21.83-8.34-26.69,3.83-6.48,36.11,3.32,43.51,3-2.21-4.78-6.84-7.6-9.97-11.52-10.52-13.16-19.5-32.95-20.03-49.99-.8-25.91,19.37-13.78,34.25-8.23,58.33,21.78,144.75,63.37,179.56,116.44,4.22,6.44,8.35,14.14,11.2,21.31ZM294.39,242.46c-8.79-29.83-32.47-51.83-56.68-69.81-41.15-30.57-88.96-50.32-136.31-69.18,1.47,20.03,16.69,37.8,32.08,49.41,26.06,19.66,54.93,20.59,84.68,31.32,18.29,6.59,37.14,16.33,51.76,29.24,9.58,8.47,17.17,18.61,24.46,29.03ZM461.39,170.47c-31.38-2.51-51.56-30.4-83.91-11.43-24.36,14.28-33.15,49.44-49.67,72.33-2.63,3.65-10.5,11.07-11.9,14.1-3.42,7.45,3.43,25.55-3.52,32.48-5.14,5.13-26.28,6.7-34.76,9.24-14.32,4.29-28.55,13.68-40.55,22.45-39.48,28.85-74.87,71.68-86.68,119.81,3.13,3.44,31.71-24.93,34.51-27.98,4.65-5.06,20.35-26.86,25.21-27.85,10.19-2.08-.61,16.94-2.55,20.51-5.84,10.76-13.79,20.95-22.16,29.84-.87,2.74,4.86-.36,5.38-.63,24.99-13.3,29.89-40.44,42.23-61.77,5.25-9.08,12.27-7.49,21.93-7.15,39.46,1.39,65.45,9.58,103.13-10.79,70.35-38.02,40.9-107.96,82.81-155.19l20.51-17.98ZM280.39,254.46c2.31-2.73-20.79-26.73-23.98-29.51-18.78-16.37-41.04-25.08-65-31-27.92-6.9-64.61-15.36-92.79-19.21-1.75-.24-3.46-.43-5.22-.27,10.44,18.62,26.89,32.64,46.33,41.16,45.05,19.76,99.14,8.85,140.66,38.83ZM271.39,268.47c-29.22-20.2-64.78-21.79-98.99-26,3.15,6.16,9.44,10.71,15.08,14.41,23.54,15.42,49.23,15.41,76.4,13.57l7.5-1.98Z"></path>
  <path fill="currentColor" d="M504.35,181.48c46.46,100.26,2.94,219.53-97.27,265.16-52.82,24.05-129.53,25.63-179.37-6.98-1.33-.87-4.45-2.73-4.17-4.51l10.34-10.67c6.59,2.37,12.44,6.45,18.85,9.15,68.98,29.08,146.44,14.85,199.69-37.66,43.08-42.49,57.72-95.14,52.97-155-1.41-17.83-9.36-36.55-15.75-53.05l14.71-6.44Z"></path>
  <path fill="currentColor" d="M475.4,140.45l-16.28,3.86c-22.84-21.91-49.96-40.19-80.5-49.57-41.5-12.74-90.65-10.49-130.58,6.86-12.75,5.54-24.27,13.42-36.13,20.54-3.1-2.7-8.4-4.8-11.28-7.37-2.03-1.8-1.72-2.27.25-4.34,3.22-3.38,17.69-11.81,22.5-14.5,60.49-33.74,136.25-33.94,197.04-1,16.06,8.7,43.68,28.19,53.99,43.01.59.85,1.39.99.98,2.5Z"></path>
  <path fill="currentColor" d="M146.41,363.46c-20.58-38.34-28.02-80.7-23.01-124,.96-.83,13.48,4.69,14,7.5,1.07,5.77-.36,15.57-.05,22.05.89,18.21,3.34,35.82,8.77,53.23,2,6.4,10.2,23.12,10.32,27.77s-5.44,12.14-10.04,13.46Z"></path>
  <path fill="currentColor" d="M406.14,168.67c11.83-2.27,16.5,13.04,6.48,17.52-13.2,5.91-19.14-15.09-6.48-17.52Z"></path>
</svg>