<?xml version="1.0" standalone="no"?>
<!DOCTYPE svg PUBLIC "-//W3C//DTD SVG 20010904//EN"
 "http://www.w3.org/TR/2001/REC-SVG-20010904/DTD/svg10.dtd">
<svg version="1.0" xmlns="http://www.w3.org/2000/svg"
 width="1024.000000pt" height="1024.000000pt" viewBox="0 0 1024.000000 1024.000000"
 preserveAspectRatio="xMidYMid meet">

<g transform="translate(0.000000,1024.000000) scale(0.100000,-0.100000)"
fill="#000000" stroke="none">
<path d="M4780 8675 c-290 -41 -562 -132 -790 -267 -109 -64 -240 -155 -240
-166 0 -4 32 -28 71 -53 l72 -47 106 70 c242 160 519 259 831 298 122 15 391
12 523 -5 408 -53 791 -240 1115 -544 l63 -59 77 20 c42 11 83 23 89 27 16 8
-155 181 -267 269 -313 248 -685 408 -1063 457 -144 18 -453 18 -587 0z"/>
<path d="M2580 8567 c-14 -7 -33 -28 -43 -47 -27 -51 -18 -206 18 -320 52
-163 116 -272 227 -386 70 -72 76 -81 51 -77 -15 3 -94 18 -175 34 -200 39
-281 37 -290 -8 -13 -62 66 -242 163 -373 147 -199 379 -372 610 -454 87 -31
90 -34 115 -82 75 -142 234 -294 389 -371 125 -63 246 -91 428 -101 l122 -7
-100 -69 c-392 -271 -701 -617 -910 -1018 -35 -68 -77 -162 -94 -210 -61 -176
-77 -352 -36 -398 36 -40 192 -19 293 40 28 17 40 19 70 10 61 -17 183 -12
253 10 125 38 273 164 375 316 63 95 163 289 196 381 19 54 26 63 43 59 11 -3
97 -15 190 -28 233 -31 495 -31 642 0 350 75 643 256 826 510 152 211 238 442
297 797 41 247 110 400 245 544 259 275 764 464 1300 486 77 4 150 8 163 11
27 5 30 40 5 48 -102 31 -443 45 -655 27 -78 -7 -215 -23 -303 -37 -88 -13
-220 -31 -293 -41 -178 -22 -231 -14 -390 66 -126 63 -212 94 -306 110 -237
42 -497 -67 -655 -275 -28 -38 -97 -158 -152 -268 -56 -109 -119 -228 -141
-264 -45 -74 -117 -172 -127 -172 -3 0 -30 48 -60 107 -187 369 -626 731
-1281 1057 -220 110 -552 253 -770 334 -122 45 -150 54 -200 68 -8 2 -26 -2
-40 -9z m390 -329 c135 -57 268 -113 295 -123 66 -24 446 -217 560 -285 50
-29 149 -93 221 -142 393 -266 603 -499 714 -790 29 -76 25 -80 -14 -16 -123
205 -329 385 -576 505 -172 83 -369 147 -700 228 -126 31 -172 47 -247 88
-236 129 -404 298 -478 484 -29 72 -47 166 -31 160 6 -3 121 -52 256 -109z
m3060 -434 c36 -8 126 -44 200 -80 128 -60 234 -93 304 -94 28 0 28 -1 -20
-32 -27 -18 -88 -71 -135 -118 -170 -168 -263 -357 -309 -630 -52 -311 -84
-429 -161 -583 -111 -223 -273 -391 -479 -496 -265 -136 -513 -171 -901 -127
-81 9 -192 18 -248 19 -133 2 -137 -1 -202 -163 -87 -217 -169 -351 -289 -472
-73 -73 -141 -117 -183 -118 -13 0 -3 15 33 53 91 93 235 322 270 430 14 44 2
67 -34 67 -26 0 -51 -25 -171 -175 -127 -156 -286 -314 -379 -374 -43 -28 -83
-51 -88 -51 -28 0 33 184 117 355 187 380 509 737 902 998 200 134 318 180
538 212 114 16 142 28 179 79 19 25 21 42 21 176 l0 148 51 58 c115 134 170
222 301 487 91 183 100 196 177 273 150 150 319 203 506 158z m-3215 -249 c94
-20 334 -69 535 -110 384 -78 471 -101 622 -160 278 -110 512 -310 663 -564
10 -17 1 -12 -66 36 -62 44 -195 106 -308 143 -115 37 -254 63 -506 95 -350
43 -515 84 -695 175 -99 50 -152 85 -223 148 -100 88 -238 272 -205 272 7 0
90 -16 183 -35z m954 -731 c342 -42 526 -96 681 -199 l74 -49 -34 -8 c-19 -5
-107 -11 -195 -14 -198 -8 -336 6 -462 48 -135 44 -297 149 -353 229 l-22 29
59 -6 c32 -3 145 -17 252 -30z"/>
<path d="M5945 7641 c-37 -16 -60 -51 -60 -93 0 -73 79 -119 149 -87 33 15 59
71 51 108 -12 56 -87 95 -140 72z"/>
<path d="M6925 7479 c-38 -16 -71 -32 -73 -34 -2 -2 14 -47 37 -100 50 -117
92 -257 117 -390 15 -81 19 -148 19 -345 0 -215 -3 -259 -23 -360 -47 -238
-114 -420 -222 -608 -87 -152 -177 -270 -310 -403 -231 -231 -481 -388 -778
-486 -215 -70 -335 -88 -602 -88 -242 0 -299 7 -489 56 -136 36 -284 93 -401
155 l-85 45 -57 -63 c-67 -75 -74 -64 87 -145 188 -95 379 -158 600 -199 120
-21 452 -30 581 -15 807 95 1501 652 1763 1416 81 233 113 433 113 695 0 258
-30 450 -104 664 -29 86 -93 236 -100 236 -2 -1 -34 -14 -73 -31z"/>
<path d="M2936 6838 c-11 -98 -6 -405 9 -520 18 -138 52 -278 100 -418 40
-116 140 -330 154 -330 19 0 101 107 101 132 0 14 -17 63 -39 109 -44 95 -93
244 -120 363 -32 140 -44 255 -45 455 l-1 193 -65 34 c-36 18 -70 33 -76 34
-6 0 -14 -24 -18 -52z"/>
<path d="M6509 4071 c-21 -21 -29 -39 -29 -63 0 -42 15 -63 60 -86 33 -16 35
-20 35 -68 -1 -60 -24 -102 -66 -117 -37 -14 -37 -27 -1 -27 44 0 114 41 149
87 61 82 68 219 13 275 -24 23 -37 28 -80 28 -44 0 -56 -4 -81 -29z"/>
<path d="M7265 4086 c-76 -20 -100 -32 -145 -72 -63 -57 -84 -105 -84 -194 0
-149 72 -227 300 -326 178 -78 200 -98 198 -185 -1 -94 -58 -135 -181 -127
-104 7 -181 47 -269 140 -49 52 -66 65 -61 47 4 -13 7 -68 7 -122 l0 -98 48
-20 c107 -46 270 -61 394 -35 80 17 116 35 169 83 62 56 83 105 83 188 0 139
-62 206 -306 331 -94 48 -177 97 -188 111 -14 18 -20 41 -20 75 0 43 4 54 30
78 80 75 247 44 368 -68 l52 -48 0 97 0 98 -57 21 c-111 42 -238 51 -338 26z"/>
<path d="M2597 4048 c16 -30 18 -69 21 -436 3 -341 1 -411 -12 -457 -9 -29
-16 -56 -16 -59 0 -9 331 -7 462 4 140 10 220 40 273 102 75 88 74 244 -1 328
-36 40 -121 80 -170 80 -14 0 -22 4 -19 10 3 6 15 10 26 10 31 0 94 36 122 69
36 43 50 95 44 156 -9 92 -53 150 -147 194 -54 26 -58 26 -328 29 l-273 3 18
-33z m408 -79 c21 -6 54 -26 72 -44 31 -31 33 -38 33 -98 0 -50 -5 -72 -23
-98 -33 -51 -97 -79 -179 -79 l-68 0 0 165 0 165 63 0 c34 0 80 -5 102 -11z
m57 -433 c76 -33 117 -118 97 -207 -21 -93 -74 -125 -221 -135 l-98 -7 0 188
0 188 94 -7 c52 -3 109 -13 128 -20z"/>
<path d="M3810 4076 c0 -2 7 -17 15 -32 22 -43 22 -847 0 -901 -8 -19 -15 -39
-15 -44 0 -5 63 -9 140 -9 77 0 140 2 140 4 0 2 -7 20 -15 39 -23 54 -22 874
0 917 l16 30 -141 0 c-77 0 -140 -2 -140 -4z"/>
<path d="M4560 4038 c18 -40 20 -67 19 -448 0 -327 -3 -413 -14 -445 -8 -22
-15 -43 -15 -47 0 -11 376 -9 493 2 118 12 183 37 235 94 48 52 65 101 66 182
0 114 -69 200 -181 226 -29 7 -53 15 -53 18 0 3 20 11 44 18 159 42 193 260
59 371 -72 60 -100 65 -400 69 l-273 3 20 -43z m437 -82 c54 -28 73 -61 73
-131 0 -113 -71 -175 -202 -175 l-68 0 0 166 0 167 83 -5 c47 -3 97 -13 114
-22z m39 -427 c61 -29 89 -78 89 -154 0 -124 -70 -178 -229 -179 l-91 -1 -3
184 -2 184 96 -6 c67 -5 110 -13 140 -28z"/>
<path d="M5790 4076 c0 -2 7 -20 15 -39 13 -30 15 -104 15 -445 0 -338 -3
-417 -15 -452 -8 -23 -15 -44 -15 -46 0 -2 63 -4 140 -4 77 0 140 2 140 4 0 2
-7 20 -15 39 -23 54 -22 874 0 917 l16 30 -141 0 c-77 0 -140 -2 -140 -4z"/>
<path d="M4170 2783 c-34 -13 -60 -47 -60 -80 0 -39 28 -70 89 -98 22 -9 42
-24 46 -33 13 -35 -42 -55 -87 -31 -28 15 -58 -12 -39 -35 32 -38 125 -39 160
-2 52 55 29 118 -56 158 -51 24 -63 43 -40 65 14 14 18 14 48 -1 31 -16 34
-15 53 3 20 20 20 20 -25 40 -45 21 -62 24 -89 14z"/>
<path d="M5144 2776 c-34 -15 -44 -33 -44 -75 0 -37 17 -58 75 -89 39 -21 50
-32 50 -52 0 -20 -6 -26 -27 -28 -15 -2 -36 2 -47 8 -15 8 -26 7 -41 -2 -11
-7 -20 -15 -20 -18 0 -16 64 -40 107 -40 64 0 93 27 93 87 0 45 -8 55 -79 93
-29 16 -47 33 -49 46 -4 29 22 37 57 19 26 -13 30 -13 46 5 16 17 15 19 -7 34
-35 23 -79 28 -114 12z"/>
<path d="M6715 2779 c-140 -44 -137 -261 5 -299 42 -11 103 1 131 26 18 16 18
19 3 35 -15 17 -19 17 -46 3 -71 -37 -144 18 -134 101 8 68 78 106 138 74 17
-9 24 -7 41 9 l20 20 -30 15 c-40 21 -92 28 -128 16z"/>
<path d="M7274 2778 c-26 -5 -53 -21 -74 -43 -27 -28 -34 -44 -38 -88 -5 -60
9 -96 52 -137 40 -36 138 -41 185 -8 66 45 89 128 53 197 -32 65 -101 95 -178
79z m99 -68 c32 -25 42 -69 27 -115 -23 -70 -99 -88 -151 -36 -85 86 29 225
124 151z"/>
<path d="M7640 2783 c-34 -13 -60 -47 -60 -80 0 -39 28 -70 89 -98 44 -19 57
-40 40 -61 -14 -17 -40 -18 -74 -2 -22 10 -29 9 -43 -6 -16 -16 -16 -18 7 -37
16 -13 39 -19 75 -19 60 0 90 21 101 70 9 42 -13 73 -80 111 -57 32 -66 48
-40 69 11 9 21 8 47 -4 31 -16 34 -16 45 1 19 25 17 29 -27 47 -42 17 -55 18
-80 9z"/>
<path d="M2472 2630 c80 -200 83 -200 158 -9 30 77 57 145 59 150 2 6 -11 9
-30 7 -31 -3 -33 -6 -70 -103 -33 -90 -38 -97 -46 -75 -5 14 -22 60 -37 103
-27 75 -29 77 -61 77 l-33 0 60 -150z"/>
<path d="M2790 2630 l0 -150 96 0 95 0 -3 28 c-3 26 -6 27 -65 30 l-63 3 0 34
0 35 55 0 c52 0 55 1 55 25 0 24 -3 25 -55 25 -54 0 -55 0 -55 30 l0 30 60 0
60 0 0 30 0 30 -90 0 -90 0 0 -150z"/>
<path d="M3100 2630 l0 -150 31 0 30 0 -3 100 c-2 55 -1 100 2 99 3 0 34 -45
70 -99 56 -86 69 -100 93 -100 l27 0 0 150 0 150 -31 0 -30 0 3 -99 c2 -55 0
-97 -3 -95 -3 2 -34 46 -69 99 -55 83 -66 95 -91 95 l-29 0 0 -150z"/>
<path d="M3450 2750 c0 -28 2 -30 40 -30 l40 0 0 -120 0 -120 30 0 30 0 0 120
0 120 40 0 c38 0 40 2 40 30 l0 30 -110 0 -110 0 0 -30z"/>
<path d="M3831 2758 c-5 -13 -32 -76 -60 -141 -28 -65 -51 -123 -51 -128 0 -5
13 -9 28 -9 21 0 32 7 40 25 11 23 17 25 77 25 61 0 65 -2 71 -25 5 -20 12
-25 40 -25 l33 0 -38 93 c-80 192 -89 207 -111 207 -12 0 -24 -9 -29 -22z m52
-115 c9 -27 17 -51 17 -55 0 -5 -18 -8 -41 -8 -35 0 -40 3 -34 18 3 9 12 34
18 55 7 20 14 37 17 37 4 0 14 -21 23 -47z"/>
<path d="M4606 2692 c50 -82 54 -93 54 -150 l0 -62 30 0 30 0 0 65 c0 62 3 69
55 151 l55 85 -37 -3 c-33 -3 -41 -9 -68 -55 -16 -29 -32 -53 -35 -53 -3 1
-20 25 -38 55 -30 49 -37 55 -67 55 l-34 0 55 -88z"/>
<path d="M5415 2630 l0 -150 93 0 93 0 -3 28 c-3 26 -6 27 -60 30 l-58 3 0 34
0 35 55 0 c52 0 55 1 55 25 0 22 -4 24 -57 27 -56 3 -57 4 -57 32 0 29 1 29
60 30 57 1 59 2 62 29 l3 27 -93 0 -94 0 1 -150z"/>
<path d="M5740 2630 l0 -150 24 0 c23 0 25 4 28 52 2 28 8 53 15 55 6 2 29
-21 50 -51 33 -48 42 -55 71 -56 37 0 37 -1 -15 72 -33 45 -33 47 -12 53 32
11 53 69 39 111 -16 46 -53 64 -135 64 l-65 0 0 -150z m138 55 c4 -34 -18 -55
-60 -55 -27 0 -28 2 -28 46 l0 45 43 -3 c38 -3 42 -6 45 -33z"/>
<path d="M6076 2698 c20 -46 47 -113 61 -150 20 -55 29 -68 47 -68 18 0 29 20
73 133 29 72 55 140 59 150 6 16 2 18 -26 15 -32 -3 -34 -6 -68 -100 -31 -86
-52 -116 -52 -72 0 8 -14 51 -31 94 -30 78 -31 80 -64 80 l-34 0 35 -82z"/>
<path d="M6430 2630 l0 -150 30 0 30 0 0 150 0 150 -30 0 -30 0 0 -150z"/>
<path d="M6980 2630 l0 -150 30 0 30 0 0 150 0 150 -30 0 -30 0 0 -150z"/>
<path d="M3567 2302 c-13 -14 -14 -21 -5 -30 17 -17 32 -15 51 6 13 14 14 21
5 30 -17 17 -32 15 -51 -6z"/>
<path d="M2460 2226 c-3 -60 0 -296 4 -296 3 0 16 0 29 0 22 0 23 3 22 60 l-2
60 64 0 63 0 0 -59 c0 -58 1 -59 30 -63 l30 -5 0 154 0 153 -30 0 -30 0 0 -62
0 -63 -62 1 -63 2 -1 58 c-1 56 -2 59 -27 62 -15 2 -27 1 -27 -2z"/>
<path d="M2896 2207 c-54 -30 -78 -78 -73 -143 4 -61 28 -97 83 -124 52 -26
91 -25 144 3 52 27 80 75 80 137 0 120 -127 189 -234 127z m119 -39 c76 -34
70 -162 -8 -187 -111 -37 -178 129 -76 185 30 17 51 17 84 2z"/>
<path d="M3252 2078 l3 -153 88 -2 87 -1 0 29 c0 29 0 29 -60 29 l-60 0 0 125
0 125 -30 0 -31 0 3 -152z"/>
<path d="M3550 2075 l0 -155 30 0 30 0 0 155 0 155 -30 0 -30 0 0 -155z"/>
<path d="M3755 2204 c-47 -51 -31 -98 50 -144 61 -35 68 -42 59 -63 -9 -24
-32 -28 -69 -13 -29 12 -36 12 -52 0 -17 -13 -17 -15 6 -34 69 -59 181 -21
181 60 0 37 -25 66 -85 98 -52 28 -69 57 -39 69 9 3 31 1 48 -5 26 -10 33 -9
49 7 18 18 18 18 -16 35 -54 25 -103 21 -132 -10z"/>
<path d="M4020 2200 c0 -28 2 -30 41 -30 l40 0 -2 -122 -1 -121 26 -2 26 -1 0
123 0 123 40 0 c38 0 40 2 40 30 l0 30 -105 0 -105 0 0 -30z"/>
<path d="M4350 2074 l0 -155 28 3 27 3 3 153 3 152 -31 0 -30 0 0 -156z"/>
<path d="M4613 2210 c-38 -23 -73 -86 -73 -133 0 -19 10 -53 23 -77 38 -71
115 -98 191 -66 42 18 52 34 33 53 -11 12 -19 12 -35 4 -30 -16 -84 -14 -109
4 -13 9 -28 33 -34 54 -9 32 -8 44 5 73 26 55 73 70 127 42 29 -14 32 -14 45
3 19 26 18 29 -20 47 -46 22 -114 20 -153 -4z"/>
<path d="M4976 2207 c-53 -30 -78 -79 -73 -140 10 -116 124 -178 227 -125 54
28 82 72 82 133 0 123 -128 194 -236 132z m152 -62 c15 -18 22 -39 22 -66 0
-51 -13 -75 -51 -95 -80 -41 -165 50 -129 137 26 62 113 75 158 24z"/>
<path d="M5350 2205 c-29 -30 -30 -77 -4 -106 10 -12 40 -32 67 -45 31 -16 47
-31 47 -44 0 -35 -52 -45 -88 -17 -9 7 -19 4 -33 -9 l-21 -19 22 -17 c12 -10
37 -20 56 -24 73 -13 124 21 124 84 0 42 -20 67 -77 96 -48 24 -66 45 -52 62
14 17 43 18 68 2 15 -9 23 -9 35 1 23 19 20 28 -14 46 -46 24 -102 20 -130
-10z"/>
<path d="M5910 2208 c-55 -38 -74 -72 -74 -133 0 -59 17 -91 68 -129 41 -31
130 -29 175 3 45 33 75 100 66 152 -18 106 -149 165 -235 107z m141 -56 c79
-71 3 -209 -95 -173 -35 14 -59 55 -59 103 0 34 6 47 32 70 19 17 43 28 61 28
18 0 42 -11 61 -28z"/>
<path d="M6272 2078 l3 -153 25 0 c25 0 25 1 30 100 l5 100 68 -97 c60 -86 71
-98 97 -98 l30 0 0 150 0 150 -30 0 -29 0 -3 -101 -3 -101 -69 101 c-60 89
-72 101 -98 101 l-29 0 3 -152z"/>
<path d="M6680 2078 l0 -153 82 2 c88 1 88 2 88 33 0 18 -7 20 -55 20 l-55 0
0 125 0 125 -30 0 -30 0 0 -152z"/>
<path d="M6970 2081 l0 -149 30 -4 30 -5 0 154 0 153 -30 0 -30 0 0 -149z"/>
<path d="M7180 2078 l0 -154 28 2 27 1 0 96 c0 54 2 97 5 97 3 0 34 -43 69
-94 51 -76 69 -95 92 -98 l29 -5 0 154 0 153 -30 0 -30 0 0 -102 0 -102 -67
99 c-55 81 -73 101 -95 103 l-28 3 0 -153z"/>
<path d="M7579 2226 c-2 -2 -3 -71 -1 -153 l3 -148 89 3 c88 3 90 4 90 28 0
23 -3 24 -60 24 l-60 0 0 38 0 37 52 0 c50 0 53 1 56 28 3 27 3 27 -56 27
l-59 0 5 30 c4 29 5 30 63 30 59 0 59 0 59 30 l0 30 -88 0 c-49 0 -91 -2 -93
-4z"/>
<path d="M4740 1605 c-26 -32 13 -81 48 -59 34 22 22 74 -18 74 -10 0 -23 -7
-30 -15z"/>
<path d="M5096 1598 c-19 -27 -5 -58 27 -58 43 0 60 35 31 64 -21 22 -40 20
-58 -6z"/>
<path d="M5450 1602 c-24 -20 -19 -46 12 -63 15 -8 24 -7 39 7 24 21 24 36 1
57 -23 21 -25 21 -52 -1z"/>
</g>
</svg>
